<?xml version="1.0" encoding="UTF-8"?><svg id="Layer_1" xmlns="http://www.w3.org/2000/svg" xmlns:xlink="http://www.w3.org/1999/xlink" viewBox="0 0 400 400"><defs><clipPath id="clippath"><rect y="78.12" width="400" height="243.75" fill="none"/></clipPath><clipPath id="clippath-1"><rect y="78.12" width="400" height="243.75" fill="none"/></clipPath></defs><g id="Artwork_1"><g clip-path="url(#clippath)"><path d="M265.07,252.84h-7.23v17.56l-19.4-18.17h-16.6v46.36h7.23v-21.05l22.38,21.05h13.62v-45.76ZM169.01,277.97v-6.96h-9.8v-11.62h9.8v-7.15h-34.09v46.36h24.29v-20.63h9.8ZM190.74,286.74h-7.87l4.47-11.83,3.4,11.83ZM200.75,252.24h-12.36l-18.1,46.36h7.88l1.93-4.91h12.78l1.26,4.91h26l-19.39-46.36Z"/><g clip-path="url(#clippath-1)"><path d="M226.42,304.1h-8.95v3.68h8.95v-3.68ZM262.42,311.87c.63-.42,1.5-.61,2.55-.61v-2.67c-1.27,0-2.55.41-3.61.83v-.83h-8.95v12.68h8.95v-7.15c0-1.02.42-1.65,1.06-2.25M243.25,313.3h-2.78c.22-1.43.65-2.25,1.28-2.25.85.21,1.28.82,1.5,2.25M246.87,315.94c0-1.42-.21-2.44-.44-3.26-.21-1.02-.85-2.03-1.7-2.85-1.05-1.02-2.78-1.63-4.9-1.63-1.91,0-3.84.62-5.32,1.83-1.71,1.23-2.35,2.85-2.35,4.89,0,2.67,1.07,4.71,3.63,5.72,1.29.63,2.96,1.02,4.9,1.02s3.83-.2,5.97-.79v-2.68c-1.28.22-2.34.42-3.2.42-1.91,0-2.98-.82-2.98-2.67h6.4ZM226.42,308.59h-8.95v12.68h8.95v-12.68ZM199.14,308.59v12.68h9.16v-7.15c0-1.02.22-1.65,1.07-2.25.64-.42,1.5-.61,2.56-.61v-2.67c-1.49,0-2.77.41-3.63.83v-.83h-9.16ZM182.53,316.98v-8.39h-8.3v8.59c0,1.43.42,2.65,1.49,3.46,1.06.82,2.33,1.23,4.05,1.23s3.39-.41,4.89-1.23v.63h8.95v-12.68h-8.95v8.39c0,.4,0,.61-.21.81-.22.2-.43.2-.87.2-.61,0-1.05-.2-1.05-1.01M158.89,317.99v-5.72c0-.6.42-1.01,1.08-1.01.84,0,1.26.4,1.26,1.01v5.72c0,.62-.41,1.02-1.26,1.02-.65,0-1.08-.39-1.08-1.02M153.99,310.03c-1.72,1.23-2.57,2.85-2.57,4.89,0,1.84.85,3.48,2.57,4.91,1.7,1.22,3.62,1.83,5.97,1.83s4.47-.6,5.95-1.83c1.92-1.43,2.76-3.07,2.76-4.91,0-2.04-.84-3.67-2.76-4.89-1.49-1.22-3.62-1.83-5.95-1.83s-4.27.62-5.97,1.83M145.69,308.2h-2.35c-2.56,0-4.26.4-5.75,1.42-1.71,1.23-2.56,2.85-2.56,5.11s.85,3.88,2.56,5.11c1.49,1.03,3.19,1.43,5.75,1.43h1.7v-2.45h-1.49c-.65-.21-.85-.63-.85-1.03v-6.12c0-.21.2-.4.2-.61.23-.2.65-.4.85-.4l1.51.2.42-2.65Z" fill="#929496"/><polygon points="170.91 109.28 170.91 111.69 195.74 116.35 195.74 119.72 201.87 118.44 201.87 115.23 170.91 109.28" fill="#1a2542"/><polygon points="207.83 115.88 207.83 119.72 237.5 125.33 237.5 218.48 243.63 221.2 243.63 122.62 207.83 115.88" fill="#1a2542"/><path d="M122.06,114.1h.31L0,78.13l1.62,24.9,56.11,26.65c-18.55-7.37-32.58-12.99-42.41-17.01l.48,10.11,3.05,1.6c23.39,12.22,41.78,21.36,55.15,27.62-20.96-9.32-35.14-15.57-42.4-18.78l.48,11.39,3.72,1.77c1.12.63,2.41,1.28,3.54,1.93,1.62.8,3.22,1.45,4.84,2.25l56.75,28.4-54.02-25.03.48,11.23,74.49,38.05h.17v-89.1ZM200.41,135.3l-37.57-9.97v98.28l37.57,19.26v-107.57ZM128.03,200.97v5.46l28.85,14.93v-98.43l-28.85-7.71v85.75Z" fill="#1a2542"/><path d="M200.41,135.3v107.57l37.09-19.09v-98.46l-37.09,9.97ZM272.97,114.91l-29.34,7.71v98.58l29.34-15.24v-91.05ZM356.47,150.07c1.45-.8,2.9-1.44,4.52-2.24,1.11-.66,2.4-1.3,3.71-1.78l3.71-1.93.65-11.4c-7.42,3.21-21.45,9.64-42.41,18.94,13.23-6.25,31.61-15.58,55.14-27.78l2.9-1.6.65-10.29c-9.84,4.18-23.85,9.81-42.4,17.35l55.94-26.98,1.13-24.24-121.42,35.64v89.13l74.49-38.37.49-11.09-53.83,25.06,56.74-28.42ZM160.11,109.46h-.16l-37.58,4.65h-.31v89.1l5.97-2.23v-85.75l32.08-4.01v-1.77ZM195.74,119.72l-32.9,5.61v93.3l-5.97,2.74v-98.43l38.87-6.59v3.37ZM201.87,118.44l5.96,1.28v-3.84l25.47-4.19v-1.78l-31.44,5.31v3.21Z" fill="#486099"/><polygon points="243.79 109.76 243.79 111.04 272.97 114.91 272.97 200.48 278.93 202.9 278.93 113.77 244.43 109.6 244.1 109.6 243.79 109.76" fill="#1a2542"/><path d="M243.75,109.6h.34l34.49,4.17,121.42-35.64-156.25,31.47ZM239.12,110.57l4.68.47,29.18,3.86-29.34,7.71-35.8-6.74,25.47-4.19,5.81-1.12ZM207.83,119.72l-5.96-1.28-6.13,1.28-32.9,5.61,37.57,9.97,37.09-9.97-29.66-5.61ZM200.58,105.75h-.17l-29.5,3.53,30.96,5.95,31.44-5.31-32.73-4.17ZM164.95,110.57l5.96,1.12,24.83,4.65-38.87,6.59-28.85-7.71,32.08-4.01,4.84-.65ZM122.37,114.1l37.58-4.65L0,78.13l122.37,35.98Z" fill="#b9d1ec"/></g></g></g></svg>